#!OML:ASF E:\id_vita\Project 1\Capture day 1\Session 1\Male1.ASF
:FULLY-SPECIFIED
:DEGREES
582
root -20.3898 15.8042 -2.59231 177.467 -42.3943 -176.757
lowerback -1.78327 -2.77046 -4.66784
upperback 0.490022 -3.59083 -0.920009
thorax 1.73015 -1.84411 1.53953
lowerneck -0.397851 -4.83659 -2.84144
upperneck -16.8047 -7.59802 0.534836
head -4.86796 -3.95723 0.965446
rclavicle 6.16481e-014 -4.69132e-014
rhumerus -29.9478 8.88798 -93.1515
rradius 35.4869
rwrist -1.93805
rhand -21.4699 40.1599
rfingers 7.12502
rthumb 4.92063 10.2371
lclavicle 6.16481e-014 -4.69132e-014
lhumerus -37.4251 30.8068 63.3887
lradius 13.5192
lwrist -18.9976
lhand -11.8623 45.7754
lfingers 7.12502
lthumb 14.1897 75.2708
rfemur -4.5831 1.02736 28.7009
rtibia 26.8247
rfoot -18.6151 -8.5852
rtoes 0.0648031
lfemur -20.9134 1.2988 -7.66594
ltibia 42.0705
lfoot -18.3296 -3.07981
ltoes 38.0115
583
root -20.4576 15.803 -2.60801 177.519 -41.8386 -176.844
lowerback -1.84085 -2.75908 -4.66493
upperback 0.510145 -3.57229 -0.98094
thorax 1.77788 -1.83629 1.47257
lowerneck -0.876348 -4.63347 -2.55595
upperneck -15.8641 -7.29208 0.265806
head -5.04811 -3.81 0.860552
rclavicle 3.72597e-014 -4.85035e-014
rhumerus -29.9155 8.92637 -93.1864
rradius 35.249
rwrist -1.83435
rhand -21.446 40.1555
rfingers 7.12502
rthumb 4.94375 10.2331
lclavicle 3.72597e-014 -4.85035e-014
lhumerus -37.3835 30.7176 63.48
lradius 13.53
lwrist -18.6946
lhand -12.4296 45.793
lfingers 7.12502
lthumb 13.643 75.3259
rfemur -4.15252 2.06764 28.6223
rtibia 26.5885
rfoot -18.4021 -9.25419
rtoes -1.35619
lfemur -20.992 0.982884 -7.45461
ltibia 40.9607
lfoot -18.4257 -2.73009
ltoes 36.0145
584
root -20.5266 15.8079 -2.62715 177.377 -41.3734 -176.518
lowerback -1.9855 -2.69801 -4.31198
upperback 0.506701 -3.49019 -0.980353
thorax 1.82903 -1.79183 1.27383
lowerneck 1.96449 -4.95031 -3.07422
upperneck -19.5614 -7.99402 1.1254
head -6.09008 -4.17162 1.36283
rclavicle -3.844e-014 5.24792e-014
rhumerus -29.8993 8.83279 -93.1294
rradius 35.0144
rwrist -1.78547
rhand -21.4908 40.1403
rfingers 7.12502
rthumb 4.90042 10.217
lclavicle -3.844e-014 5.24792e-014
lhumerus -37.2946 30.4427 63.6782
lradius 13.6001
lwrist -18.4693
lhand -12.7272 45.853
lfingers 7.12502
lthumb 13.3561 75.405
rfemur -3.81721 2.02763 28.7084
rtibia 26.3123
rfoot -18.7848 -8.6896
rtoes -0.477952
lfemur -21.1635 0.603562 -6.85578
ltibia 39.8584
lfoot -18.2618 -3.02423
ltoes 35.2231
585
root -20.5916 15.8245 -2.64846 177.364 -40.8081 -176.275
lowerback -2.15052 -2.65471 -4.10107
upperback 0.458315 -3.42993 -0.96211
thorax 1.85701 -1.75895 1.17142
lowerneck 3.38585 -6.25767 -5.04846
upperneck -21.8816 -9.99846 2.96339
head -6.84272 -5.16554 2.50308
rclavicle 1.41137e-014 2.8625e-014
rhumerus -29.9335 8.48701 -93.0573
rradius 34.7433
rwrist -1.34861
rhand -21.5107 40.3659
rfingers 7.12502
rthumb 4.88127 10.4421
lclavicle 1.41137e-014 2.8625e-014
lhumerus -37.3728 30.4408 63.5876
lradius 13.7239
lwrist -18.5418
lhand -12.3648 45.951
lfingers 7.12502
lthumb 13.7054 75.4797
rfemur -3.56816 0.658006 28.4726
rtibia 25.8888
rfoot -19.7879 -6.26083
rtoes 2.29793
lfemur -21.3107 0.0357186 -6.25212
ltibia 38.7819
lfoot -17.7731 -3.62204
ltoes 36.7987
586
root -20.6548 15.8379 -2.6671 177.48 -40.1687 -176.403
lowerback -2.19329 -2.58113 -4.19914
upperback 0.446112 -3.32826 -1.02071
thorax 1.86529 -1.70974 1.16863
lowerneck 2.69665 -6.28475 -4.55968
upperneck -21.571 -10.034 2.60084
head -6.66708 -5.20679 2.27019
rclavicle 9.05464e-014 6.36111e-015
rhumerus -30.0233 7.69207 -92.9116
rradius 34.6316
rwrist -0.452186
rhand -21.2668 40.5409
rfingers 7.12502
rthumb 5.11675 10.6227
lclavicle 9.05464e-014 6.36111e-015
lhumerus -37.3349 30.4335 63.5067
lradius 13.8133
lwrist -18.7089
lhand -11.6955 46.1184
lfingers 7.12502
lthumb 14.3504 75.6024
rfemur -3.1168 1.14795 28.2529
rtibia 25.4438
rfoot -19.8767 -5.89314
rtoes 3.34396
lfemur -21.2526 -0.681808 -5.89117
ltibia 37.7064
lfoot -17.1039 -4.41639
ltoes 40.0926
587
root -20.7239 15.853 -2.68555 177.46 -39.5557 -176.5
lowerback -2.17909 -2.45905 -4.17591
upperback 0.463745 -3.16719 -1.11181
thorax 1.86049 -1.62973 1.06987
lowerneck 2.33308 -5.81128 -4.03886
upperneck -20.9472 -9.28072 2.31505
head -6.46647 -4.85124 2.0179
rclavicle -2.07233e-014 -2.8625e-014
rhumerus -30.0209 7.28867 -92.8173
rradius 34.4409
rwrist -0.148352
rhand -21.0646 40.2781
rfingers 7.12502
rthumb 5.31199 10.3647
lclavicle -2.07233e-014 -2.8625e-014
lhumerus -37.1811 30.1636 63.6699
lradius 13.8778
lwrist -18.6488
lhand -10.895 46.5493
lfingers 7.12502
lthumb 15.1217 75.9769
rfemur -2.53752 1.85906 28.111
rtibia 25.0325
rfoot -19.7562 -6.29375
rtoes 2.71106
lfemur -20.973 -1.60408 -5.39743
ltibia 36.6154
lfoot -16.4274 -5.70003
ltoes 45.1741
588
root -20.8052 15.8517 -2.70529 177.518 -38.8115 -176.728
lowerback -2.28576 -2.35234 -4.20211
upperback 0.514425 -3.01751 -1.17196
thorax 1.96304 -1.55802 1.02315
lowerneck 1.69649 -5.43925 -3.71402
upperneck -20.2843 -8.7101 1.99637
head -6.19134 -4.57624 1.78756
rclavicle 6.16729e-014 -2.06736e-014
rhumerus -29.9405 6.60929 -92.5488
rradius 34.2322
rwrist 0.512079
rhand -20.8452 39.8775
rfingers 7.12502
rthumb 5.5238 9.96949
lclavicle 6.16729e-014 -2.06736e-014
lhumerus -37.2476 30.3201 63.7137
lradius 14.014
lwrist -18.7502
lhand -10.5807 46.7991
lfingers 7.12502
lthumb 15.4244 76.2036
rfemur -1.96426 2.31699 27.7589
rtibia 24.7138
rfoot -19.8263 -6.48247
rtoes 1.24812
lfemur -20.7037 -1.43185 -5.50737
ltibia 35.5262
lfoot -15.9276 -5.55354
ltoes 43.4577
589
root -20.8834 15.8421 -2.7197 177.576 -38.0746 -176.857
lowerback -2.39971 -2.28042 -4.17589
upperback 0.569834 -2.91475 -1.21235
thorax 2.07546 -1.50913 0.965359
lowerneck 0.791233 -5.20099 -3.38229
upperneck -19.6061 -8.35439 1.61833
head -5.8626 -4.41095 1.54292
rclavicle 6.86304e-014 -1.27222e-014
rhumerus -29.7414 6.89191 -92.5225
rradius 33.7578
rwrist 0.365772
rhand -20.8895 39.6944
rfingers 7.12502
rthumb 5.48102 9.78529
lclavicle 6.86304e-014 -1.27222e-014
lhumerus -37.3514 30.5738 63.6777
lradius 14.3165
lwrist -18.8779
lhand -12.2635 46.7219
lfingers 7.12502
lthumb 13.8031 76.244
rfemur -1.52279 2.65987 27.4044
rtibia 24.4623
rfoot -20.1783 -5.92005
rtoes 2.22191
lfemur -20.4904 -1.44209 -5.4643
ltibia 34.4486
lfoot -15.1649 -5.6328
ltoes 43.0761
590
root -20.9532 15.8369 -2.73111 177.538 -37.4642 -176.762
lowerback -2.4536 -2.20367 -3.96432
upperback 0.586077 -2.81503 -1.24068
thorax 2.10569 -1.45723 0.820865
lowerneck -0.117223 -4.97794 -3.13862
upperneck -18.861 -8.00316 1.32943
head -5.50463 -4.24528 1.34303
rclavicle -1.02623e-014 -2.46493e-014
rhumerus -29.672 7.0866 -92.4844
rradius 33.3403
rwrist 0.298742
rhand -21.0142 39.8146
rfingers 7.12502
rthumb 5.36061 9.90237
lclavicle -1.02623e-014 -2.46493e-014
lhumerus -37.1985 30.5225 63.7886
lradius 14.3463
lwrist -18.9222
lhand -12.3627 46.4024
lfingers 7.12502
lthumb 13.7075 75.9309
rfemur -1.32419 2.66819 27.286
rtibia 24.3925
rfoot -20.461 -5.77564
rtoes 0.852432
lfemur -20.3345 -1.60577 -5.15268
ltibia 33.3481
lfoot -14.3111 -5.83529
ltoes 43.6695
591
root -21.0228 15.8354 -2.74432 177.536 -36.764 -176.804
lowerback -2.4466 -2.11174 -3.88178
upperback 0.575079 -2.69579 -1.25609
thorax 2.08043 -1.39628 0.765517
lowerneck -0.483783 -4.9668 -3.05318
upperneck -18.647 -8.00999 1.11063
head -5.3895 -4.24861 1.24338
rclavicle 5.7076e-014 3.97569e-014
rhumerus -29.7028 7.00394 -92.3212
rradius 33.0473
rwrist 0.623546
rhand -21.0398 39.8944
rfingers 7.12502
rthumb 5.33589 9.98159
lclavicle 5.7076e-014 3.97569e-014
lhumerus -36.876 30.1444 64.1549
lradius 14.0233
lwrist -18.5969
lhand -12.4357 46.2195
lfingers 7.12502
lthumb 13.6371 75.7528
rfemur -0.923414 2.9584 27.0652
rtibia 24.0459
rfoot -20.6122 -5.32017
rtoes 0.606996
lfemur -20.0968 -1.73303 -5.0087
ltibia 32.4071
lfoot -13.6858 -5.70062
ltoes 43.8037
592
root -21.0948 15.8261 -2.75672 177.456 -36.048 -176.748
lowerback -2.42454 -2.05224 -3.72649
upperback 0.554467 -2.6224 -1.23388
thorax 2.03757 -1.35665 0.706848
lowerneck 1.61294 -4.76476 -2.8893
upperneck -20.8417 -7.97794 1.14518
head -6.44743 -4.24097 1.37054
rclavicle -1.65488e-014 1.03368e-014
rhumerus -29.708 6.76406 -92.1357
rradius 32.757
rwrist 1.10271
rhand -20.9923 39.9439
rfingers 7.12502
rthumb 5.38181 10.0322
lclavicle -1.65488e-014 1.03368e-014
lhumerus -36.7113 29.755 64.5087
lradius 13.8373
lwrist -18.1495
lhand -12.67 46.2332
lfingers 7.12502
lthumb 13.4112 75.7815
rfemur -0.518875 3.469 26.9451
rtibia 23.7413
rfoot -20.7186 -4.85941
rtoes 0.254651
lfemur -19.8493 -1.81403 -4.82358
ltibia 31.5358
lfoot -13.0341 -5.30713
ltoes 43.6227
